<svg width="112" height="112" viewBox="0 0 112 112" fill="none" xmlns="http://www.w3.org/2000/svg">
<circle cx="56" cy="56" r="55.5" fill="white" stroke="black"/>
<path d="M82.672 23.912C83.248 24.68 83.6 25.576 83.728 26.6C83.728 26.984 83.696 27.368 83.632 27.752C83.632 28.072 83.6 28.392 83.536 28.712C83.472 29.416 83.056 30.088 82.288 30.728C81.84 31.048 81.264 31.368 80.56 31.688C80.176 31.816 79.76 31.912 79.312 31.976C78.928 31.976 78.48 32.008 77.968 32.072C77.584 32.2 77.168 32.264 76.72 32.264C76.272 32.264 75.824 32.264 75.376 32.264H71.056L50.992 32.36V32.648L50.896 48.296C51.408 48.296 51.952 48.296 52.528 48.296C53.168 48.296 53.936 48.264 54.832 48.2C57.392 48.2 59.664 48.2 61.648 48.2C63.696 48.2 65.936 48.232 68.368 48.296H68.944C69.648 48.296 70.352 48.328 71.056 48.392C71.824 48.392 72.592 48.392 73.36 48.392C74.064 48.456 74.768 48.552 75.472 48.68C76.176 48.744 76.88 48.904 77.584 49.16C78.736 49.544 79.568 50.152 80.08 50.984C80.784 51.816 81.136 52.68 81.136 53.576C81.136 53.96 81.136 54.344 81.136 54.728C81.136 55.048 81.072 55.4 80.944 55.784C80.88 56.296 80.464 56.936 79.696 57.704C79.184 58.152 78.576 58.44 77.872 58.568C77.552 58.696 77.168 58.824 76.72 58.952C76.336 59.016 75.92 59.08 75.472 59.144C75.024 59.208 74.576 59.272 74.128 59.336C73.744 59.336 73.296 59.336 72.784 59.336H68.368L50.704 59.432L50.416 81.704V82.472C50.416 82.792 50.384 83.112 50.32 83.432C50.32 83.688 50.288 83.976 50.224 84.296C50.096 84.616 49.968 84.968 49.84 85.352C49.776 85.672 49.68 85.992 49.552 86.312C49.104 87.208 48.688 87.816 48.304 88.136C47.6 88.648 46.736 89 45.712 89.192C43.984 89.576 42.352 89.384 40.816 88.616C40.496 88.424 40.176 88.2 39.856 87.944C39.6 87.624 39.376 87.24 39.184 86.792C39.056 86.536 38.992 86.344 38.992 86.216L38.704 85.64C38.512 85.32 38.384 85 38.32 84.68C38.256 84.296 38.192 83.944 38.128 83.624C38.128 83.304 38.096 82.984 38.032 82.664C38.032 82.344 38 82.024 37.936 81.704C37.872 81.192 37.872 80.68 37.936 80.168V78.632L38.032 71.144L38.128 57.32C38.192 55.272 38.224 53.192 38.224 51.08C38.224 48.968 38.224 46.792 38.224 44.552C38.16 42.248 38.128 40.2 38.128 38.408C38.192 36.616 38.288 34.664 38.416 32.552V32.072C38.48 31.368 38.512 30.728 38.512 30.152C38.512 29.512 38.576 28.872 38.704 28.232C38.832 26.824 39.152 25.576 39.664 24.488C40.112 23.4 40.752 22.632 41.584 22.184C42.544 21.608 43.568 21.32 44.656 21.32C45.168 21.32 45.584 21.352 45.904 21.416V21.32C47.056 21.32 47.984 21.32 48.688 21.32C49.392 21.32 50.064 21.32 50.704 21.32C51.344 21.32 52.048 21.32 52.816 21.32C53.584 21.256 54.608 21.224 55.888 21.224C61.008 21.16 66.064 21.16 71.056 21.224H71.536C72.24 21.288 72.944 21.32 73.648 21.32C74.416 21.32 75.184 21.352 75.952 21.416C76.656 21.416 77.36 21.512 78.064 21.704C78.768 21.832 79.472 22.024 80.176 22.28C81.264 22.6 82.096 23.144 82.672 23.912Z" fill="black"/>
</svg>
